<svg width="33" height="33" viewBox="0 0 33 33" fill="none" xmlns="http://www.w3.org/2000/svg">
<path d="M31.9121 25.3479L24.6102 18.7088C24.2653 18.3946 23.8116 18.227 23.3453 18.2415C22.8789 18.2559 22.4365 18.4512 22.1116 18.786L17.8131 23.2067C16.7784 23.0091 14.6983 22.3606 12.5572 20.2248C10.416 18.0819 9.76754 15.9964 9.57534 14.9689L13.9924 10.6686C14.3273 10.3437 14.5226 9.90128 14.537 9.43494C14.5514 8.96859 14.3838 8.51494 14.0696 8.16998L7.43237 0.869878C7.1181 0.523836 6.68131 0.313936 6.21476 0.284756C5.74822 0.255576 5.28868 0.409416 4.93374 0.713602L1.0358 4.05649C0.725242 4.36817 0.53988 4.783 0.514877 5.22228C0.487932 5.67135 -0.0258048 16.3089 8.22273 24.5611C15.4187 31.7552 24.4324 32.2815 26.9149 32.2815C27.2777 32.2815 27.5005 32.2707 27.5597 32.2671C27.9986 32.2412 28.4128 32.0552 28.7237 31.7444L32.0648 27.8447C32.3702 27.4909 32.5252 27.0317 32.4967 26.5652C32.4681 26.0987 32.2584 25.6618 31.9121 25.3479Z" fill="#0A30B4"/>
</svg>
