<svg width="41" height="40" viewBox="0 0 41 40" fill="none" xmlns="http://www.w3.org/2000/svg">
<path d="M4.6875 0H36.6875C38.8875 0 40.6875 1.8 40.6875 4V16H16.6875V36H25.7875C26.1475 36.6 26.5075 37.16 26.8675 37.68C27.4475 38.54 28.0075 39.32 28.5275 40H4.6875C2.4875 40 0.6875 38.2 0.6875 36V4C0.6875 1.8 2.4875 0 4.6875 0ZM12.6875 4H4.6875V24H12.6875V4ZM4.6875 28V36H12.6875V28H4.6875ZM16.6875 12H36.6875V4H16.6875V12ZM33.6875 40C33.6875 40 32.5275 38.7 31.1475 36.82C30.9675 36.56 30.7675 36.28 30.5675 36C28.6875 33.32 26.6875 29.78 26.6875 27C26.6875 23.2 29.8875 20 33.6875 20C34.7475 20 35.7675 20.26 36.6875 20.7C39.0275 21.84 40.6875 24.26 40.6875 27C40.6875 30.08 38.2275 34.08 36.2275 36.82C34.8475 38.7 33.6875 40 33.6875 40ZM31.2875 27.2C31.2875 28.4 32.2875 29.6 33.6875 29.6C35.0875 29.6 36.2875 28.4 36.0875 27.2C36.0875 26 34.8875 24.8 33.6875 24.8C32.4875 24.8 31.2875 25.8 31.2875 27.2Z" fill="#E63434"/>
</svg>
