<svg width="41" height="40" viewBox="0 0 41 40" fill="none" xmlns="http://www.w3.org/2000/svg">
<path d="M31.799 25.6634C31.5793 24.8217 31.1513 24.0371 30.515 23.3095C29.8788 22.5791 29.0692 22.0327 28.0863 21.6704L13.1244 16.0639C12.9304 15.9926 12.7378 15.9491 12.5466 15.9334C12.3555 15.9177 12.1365 15.9092 11.8897 15.9077H10.5651V10.9005C10.5651 10.3512 10.6914 9.82197 10.9439 9.31268C11.1964 8.80197 11.553 8.39183 12.0138 8.08226L22.467 0.637679C22.7866 0.410854 23.1133 0.247511 23.4471 0.147651C23.7809 0.0492168 24.1218 0 24.4699 0C24.818 0 25.1675 0.04993 25.5185 0.14979C25.8694 0.24965 26.1904 0.41228 26.4814 0.637679L36.9346 8.08226C37.3954 8.39183 37.7521 8.80197 38.0046 9.31268C38.2571 9.82339 38.3833 10.3519 38.3833 10.8983V25.6591L31.799 25.6634ZM26.6141 11.5852C26.8452 11.5852 27.047 11.4996 27.2197 11.3284C27.3908 11.1544 27.4764 10.9518 27.4764 10.7207C27.4764 10.4896 27.3908 10.2885 27.2197 10.1173C27.047 9.94323 26.8452 9.85621 26.6141 9.85621C26.383 9.85621 26.1811 9.94323 26.0085 10.1173C25.8373 10.2899 25.7517 10.491 25.7517 10.7207C25.7517 10.9504 25.8373 11.1522 26.0085 11.3263C26.1811 11.4989 26.383 11.5852 26.6141 11.5852ZM22.3343 11.5852C22.5655 11.5852 22.7673 11.4996 22.9399 11.3284C23.1111 11.1544 23.1967 10.9518 23.1967 10.7207C23.1967 10.4896 23.1111 10.2885 22.9399 10.1173C22.7673 9.94323 22.5655 9.85621 22.3343 9.85621C22.1032 9.85621 21.9014 9.94323 21.7288 10.1173C21.5576 10.2899 21.472 10.491 21.472 10.7207C21.472 10.9504 21.5576 11.1522 21.7288 11.3263C21.9014 11.4989 22.1032 11.5852 22.3343 11.5852ZM26.6141 15.8649C26.8452 15.8649 27.047 15.7793 27.2197 15.6082C27.3908 15.4341 27.4764 15.2315 27.4764 15.0004C27.4764 14.7693 27.3908 14.5682 27.2197 14.397C27.047 14.223 26.8452 14.1359 26.6141 14.1359C26.383 14.1359 26.1811 14.223 26.0085 14.397C25.8373 14.5696 25.7517 14.7708 25.7517 15.0004C25.7517 15.2301 25.8373 15.432 26.0085 15.606C26.1811 15.7786 26.383 15.8649 26.6141 15.8649ZM22.3343 15.8649C22.5655 15.8649 22.7673 15.7793 22.9399 15.6082C23.1111 15.4341 23.1967 15.2315 23.1967 15.0004C23.1967 14.7693 23.1111 14.5682 22.9399 14.397C22.7673 14.223 22.5655 14.1359 22.3343 14.1359C22.1032 14.1359 21.9014 14.223 21.7288 14.397C21.5576 14.5696 21.472 14.7708 21.472 15.0004C21.472 15.2301 21.5576 15.432 21.7288 15.606C21.9014 15.7786 22.1032 15.8649 22.3343 15.8649ZM24.4956 39.8956C24.7781 39.9741 25.1212 40.0083 25.5249 39.9983C25.93 39.9897 26.2724 39.9469 26.552 39.8699L40.5232 35.25C40.5232 34.2571 40.1844 33.4468 39.5067 32.8191C38.8291 32.1899 37.9882 31.8754 36.9838 31.8754H25.9464C25.236 31.8754 24.5084 31.8326 23.7638 31.747C23.0163 31.66 22.3194 31.5031 21.6731 31.2762L18.3093 30.1507C18.0796 30.0708 17.9113 29.9203 17.8043 29.6991C17.6973 29.478 17.6794 29.2533 17.7508 29.0251C17.8221 28.8268 17.9662 28.677 18.183 28.5757C18.3999 28.473 18.6231 28.4616 18.8528 28.5415L21.9192 29.6157C22.5013 29.824 23.1382 29.9788 23.8301 30.08C24.5234 30.1799 25.2745 30.2298 26.0834 30.2298H28.6555C29.0592 30.2298 29.3823 30.1143 29.6249 29.8832C29.8674 29.6521 29.9886 29.3268 29.9886 28.9074C29.9886 28.3539 29.7682 27.7768 29.3274 27.1763C28.888 26.5757 28.3773 26.1727 27.7953 25.9672L14.9112 21.2381C14.7157 21.1782 14.521 21.1254 14.327 21.0798C14.1315 21.0341 13.9233 21.0113 13.7021 21.0113H9.24909V35.4276L24.4956 39.8956ZM0.6875 36.153C0.6875 36.8092 0.907192 37.357 1.34658 37.7964C1.78739 38.2372 2.33591 38.4576 2.99213 38.4576H4.80246C5.45868 38.4576 6.00648 38.2372 6.44587 37.7964C6.88668 37.357 7.10709 36.8092 7.10709 36.153V23.3138C7.10709 22.6576 6.88668 22.1098 6.44587 21.6704C6.00506 21.2296 5.45725 21.0092 4.80246 21.0092H2.99213C2.33591 21.0092 1.78739 21.2296 1.34658 21.6704C0.907192 22.1112 0.6875 22.659 0.6875 23.3138V36.153Z" fill="#E63434"/>
</svg>
