<svg width="51" height="40" viewBox="0 0 51 40" fill="none" xmlns="http://www.w3.org/2000/svg">
<path d="M0.6875 40V15C0.6875 13.625 1.17708 12.4479 2.15625 11.4688C3.13542 10.4896 4.3125 10 5.6875 10H13.1875V5C13.1875 3.625 13.6771 2.44792 14.6562 1.46875C15.6354 0.489583 16.8125 0 18.1875 0H33.1875C34.5625 0 35.7396 0.489583 36.7188 1.46875C37.6979 2.44792 38.1875 3.625 38.1875 5V10H45.6875C47.0625 10 48.2396 10.4896 49.2188 11.4688C50.1979 12.4479 50.6875 13.625 50.6875 15V40H0.6875ZM15.6875 27.5V30H10.6875V27.5H5.6875V35H45.6875V27.5H40.6875V30H35.6875V27.5H15.6875ZM5.6875 15V22.5H10.6875V20H15.6875V22.5H35.6875V20H40.6875V22.5H45.6875V15H5.6875ZM18.1875 10H33.1875V5H18.1875V10Z" fill="#E63434"/>
</svg>
