<svg width="41" height="40" viewBox="0 0 41 40" fill="none" xmlns="http://www.w3.org/2000/svg">
<path d="M40.047 9.92735C40.25 9.72472 40.4111 9.48404 40.521 9.21907C40.6309 8.9541 40.6875 8.67006 40.6875 8.3832C40.6875 8.09634 40.6309 7.8123 40.521 7.54734C40.4111 7.28237 40.25 7.04168 40.047 6.83905L33.8484 0.640536C33.6458 0.437489 33.4051 0.276399 33.1402 0.166487C32.8752 0.056575 32.5912 0 32.3043 0C32.0174 0 31.7334 0.056575 31.4684 0.166487C31.2035 0.276399 30.9628 0.437489 30.7601 0.640536L20.9258 10.4749L12.4055 1.95471C10.6971 0.246285 7.91545 0.246285 6.20702 1.95471L2.04548 6.11626C0.337054 7.82468 0.337054 10.6063 2.04548 12.3148L10.5657 20.835L0.6875 30.7132V40H9.97432L19.8744 30.0999L28.3946 38.6201C30.4754 40.7009 33.279 39.9343 34.5931 38.6201L38.7547 34.4586C40.4631 32.7501 40.4631 29.9685 38.7547 28.2601L30.2345 19.7398L40.047 9.92735ZM5.15569 9.20456L9.29533 5.04301L12.077 7.82468L9.49246 10.4311L12.5808 13.5194L15.1872 10.913L17.8155 13.5413L13.654 17.7029L5.15569 9.20456ZM29.7526 25.5003L27.1462 28.1067L30.2345 31.195L32.8409 28.5886L35.6226 31.3703L31.461 35.5318L22.9408 27.0116L27.1024 22.85L29.7526 25.5003ZM8.15638 35.6194H5.06807V32.5311L26.1167 11.4825L28.9641 14.3298L29.205 14.5708L8.15638 35.6194ZM29.205 8.37225L32.2933 5.28395L35.3817 8.37225L32.2933 11.4606L29.205 8.37225Z" fill="#E63434"/>
</svg>
