<svg width="42" height="40" viewBox="0 0 42 40" fill="none" xmlns="http://www.w3.org/2000/svg">
<path d="M37.0814 40L24.9316 27.8502L29.5918 23.19L41.7416 35.3398L37.0814 40ZM6.45726 40L1.79707 35.3398L17.1091 20.0277L13.3366 16.2552L11.7832 17.8086L8.9538 14.9792V19.5284L7.4004 21.0818L0.6875 14.3689L2.2409 12.8155H6.79014L4.01621 10.0416L11.8942 2.16366C12.6339 1.42395 13.4291 0.887656 14.2797 0.554785C15.1304 0.221914 15.9996 0.0554785 16.8872 0.0554785C17.7749 0.0554785 18.644 0.221914 19.4947 0.554785C20.3454 0.887656 21.1406 1.42395 21.8803 2.16366L16.7763 7.26768L19.5502 10.0416L17.9968 11.595L21.7693 15.3675L26.7624 10.3745C26.6145 9.96764 26.4942 9.5423 26.4018 9.09847C26.3093 8.65465 26.2631 8.21082 26.2631 7.76699C26.2631 5.58484 27.012 3.7448 28.51 2.24688C30.0079 0.74896 31.8479 0 34.0301 0C34.5849 0 35.1119 0.0554785 35.6112 0.166436C36.1105 0.277393 36.6191 0.443828 37.1369 0.665742L31.6445 6.15811L35.639 10.1526L41.1313 4.66019C41.3902 5.17799 41.5659 5.68655 41.6584 6.18585C41.7508 6.68516 41.7971 7.21221 41.7971 7.76699C41.7971 9.94914 41.0481 11.7892 39.5502 13.2871C38.0523 14.785 36.2122 15.534 34.0301 15.534C33.5863 15.534 33.1424 15.497 32.6986 15.423C32.2548 15.3491 31.8294 15.2196 31.4226 15.0347L6.45726 40Z" fill="#E63434"/>
</svg>
