<svg width="32" height="22" viewBox="0 0 32 22" fill="none" xmlns="http://www.w3.org/2000/svg">
<path d="M1.77778 21.6673H30.2222C31.2 21.6673 32 20.8673 32 19.8895C32 18.9118 31.2 18.1118 30.2222 18.1118H1.77778C0.8 18.1118 0 18.9118 0 19.8895C0 20.8673 0.8 21.6673 1.77778 21.6673ZM1.77778 12.7784H30.2222C31.2 12.7784 32 11.9784 32 11.0007C32 10.0229 31.2 9.22287 30.2222 9.22287H1.77778C0.8 9.22287 0 10.0229 0 11.0007C0 11.9784 0.8 12.7784 1.77778 12.7784ZM0 2.11176C0 3.08954 0.8 3.88954 1.77778 3.88954H30.2222C31.2 3.88954 32 3.08954 32 2.11176C32 1.13398 31.2 0.333984 30.2222 0.333984H1.77778C0.8 0.333984 0 1.13398 0 2.11176Z" fill="white"/>
</svg>
