<svg width="35" height="40" viewBox="0 0 35 40" fill="none" xmlns="http://www.w3.org/2000/svg">
<path d="M32.1161 14.2857H20.6875V2.85714H3.54464V37.1429H32.1161V14.2857ZM30.9332 11.4286L23.5446 4.04V11.4286H30.9332ZM2.11607 0H23.5446L34.9732 11.4286V38.5714C34.9732 38.9503 34.8227 39.3137 34.5548 39.5816C34.2869 39.8495 33.9235 40 33.5446 40H2.11607C1.73719 40 1.37383 39.8495 1.10592 39.5816C0.83801 39.3137 0.6875 38.9503 0.6875 38.5714V1.42857C0.6875 1.04969 0.83801 0.686328 1.10592 0.418419C1.37383 0.15051 1.73719 0 2.11607 0ZM9.25893 20H26.4018V22.8571H9.25893V20ZM9.25893 11.4286H16.4018V14.2857H9.25893V11.4286ZM9.25893 28.5714H26.4018V31.4286H9.25893V28.5714Z" fill="#E63434"/>
</svg>
