<svg width="35" height="40" viewBox="0 0 35 40" fill="none" xmlns="http://www.w3.org/2000/svg">
<path d="M31.6161 14.2857H20.1875V2.85714H3.04464V37.1429H31.6161V14.2857ZM30.4332 11.4286L23.0446 4.04V11.4286H30.4332ZM1.61607 0H23.0446L34.4732 11.4286V38.5714C34.4732 38.9503 34.3227 39.3137 34.0548 39.5816C33.7869 39.8495 33.4235 40 33.0446 40H1.61607C1.23719 40 0.873828 39.8495 0.605919 39.5816C0.33801 39.3137 0.1875 38.9503 0.1875 38.5714V1.42857C0.1875 1.04969 0.33801 0.686328 0.605919 0.418419C0.873828 0.15051 1.23719 0 1.61607 0ZM8.75893 20H25.9018V22.8571H8.75893V20ZM8.75893 11.4286H15.9018V14.2857H8.75893V11.4286ZM8.75893 28.5714H25.9018V31.4286H8.75893V28.5714Z" fill="#0A30B4"/>
</svg>
