<svg width="41" height="40" viewBox="0 0 41 40" fill="none" xmlns="http://www.w3.org/2000/svg">
<path d="M39.547 9.92735C39.75 9.72472 39.9111 9.48404 40.021 9.21907C40.1309 8.9541 40.1875 8.67006 40.1875 8.3832C40.1875 8.09634 40.1309 7.8123 40.021 7.54734C39.9111 7.28237 39.75 7.04168 39.547 6.83905L33.3484 0.640536C33.1458 0.437489 32.9051 0.276399 32.6402 0.166487C32.3752 0.056575 32.0912 0 31.8043 0C31.5174 0 31.2334 0.056575 30.9684 0.166487C30.7035 0.276399 30.4628 0.437489 30.2601 0.640536L20.4258 10.4749L11.9055 1.95471C10.1971 0.246285 7.41545 0.246285 5.70702 1.95471L1.54548 6.11626C-0.162946 7.82468 -0.162946 10.6063 1.54548 12.3148L10.0657 20.835L0.1875 30.7132V40H9.47432L19.3744 30.0999L27.8946 38.6201C29.9754 40.7009 32.779 39.9343 34.0931 38.6201L38.2547 34.4586C39.9631 32.7501 39.9631 29.9685 38.2547 28.2601L29.7345 19.7398L39.547 9.92735ZM4.65569 9.20456L8.79533 5.04301L11.577 7.82468L8.99246 10.4311L12.0808 13.5194L14.6872 10.913L17.3155 13.5413L13.154 17.7029L4.65569 9.20456ZM29.2526 25.5003L26.6462 28.1067L29.7345 31.195L32.3409 28.5886L35.1226 31.3703L30.961 35.5318L22.4408 27.0116L26.6024 22.85L29.2526 25.5003ZM7.65638 35.6194H4.56807V32.5311L25.6167 11.4825L28.4641 14.3298L28.705 14.5708L7.65638 35.6194ZM28.705 8.37225L31.7933 5.28395L34.8817 8.37225L31.7933 11.4606L28.705 8.37225Z" fill="#0A30B4"/>
</svg>
